<?xml version="1.0" standalone="no"?>
<!DOCTYPE svg PUBLIC "-//W3C//DTD SVG 20010904//EN"
 "http://www.w3.org/TR/2001/REC-SVG-20010904/DTD/svg10.dtd">
<svg version="1.0" xmlns="http://www.w3.org/2000/svg"
 width="90px" height="150px" viewBox="0 0 476.000000 476.000000"
 preserveAspectRatio="xMidYMid meet">

<g transform="translate(0.000000,476.000000) scale(0.100000,-0.100000)"
fill="#000000" stroke="none">
<path d="M2170 4142 l0 -619 -30 -59 c-16 -32 -74 -118 -128 -190 -120 -157
-174 -241 -210 -326 l-27 -63 -3 -1348 c-2 -893 1 -1361 8 -1386 12 -47 46
-98 83 -125 28 -21 37 -21 517 -21 480 0 489 0 517 21 37 27 71 78 83 125 7
25 10 493 8 1386 l-3 1348 -27 63 c-35 82 -94 176 -177 282 -86 110 -148 200
-171 253 -19 40 -20 74 -20 660 l0 617 -210 0 -210 0 0 -618z m77 -938 c-96
-141 -151 -242 -179 -329 -26 -82 -26 -66 -14 -750 8 -482 0 -939 -25 -1380
-11 -207 -36 -486 -44 -493 -3 -3 -5 3 -5 14 0 10 -7 93 -15 184 -21 233 -43
731 -50 1165 -7 384 8 1052 26 1163 11 74 59 176 125 270 46 64 243 276 251
269 2 -2 -30 -53 -70 -113z"/>
</g>
</svg>
